PathFileType	4	(X/Y/Z)	C:/Users/Carlo/Dropbox/Carlos/SARAH/CongressoMarcha2025/WorkshopOpenSim/C3D/Caso02/Walking03.c3d.trc
DataRate	CameraRate	NumFrames	NumMarkers	Units	OrigDataRate	OrigDataStartFrame	OrigNumFrames
100.000000	100.000000	2	197	mm	100.000000	250	400
Frame#	Time	PELO			PELA			PELL			PELP			LFEO			LFEA			LFEL			LFEP			LTIO			LTIA			LTIL			LTIP			LFOO			LFOA			LFOL			LFOP			RFEO			RFEA			RFEL			RFEP			RTIO			RTIA			RTIL			RTIP			RFOO			RFOA			RFOL			RFOP			LTOO			LTOA			LTOL			LTOP			RTOO			RTOA			RTOL			RTOP			HEDO			HEDA			HEDL			HEDP			LCLO			LCLA			LCLL			LCLP			RCLO			RCLA			RCLL			RCLP			TRXO			TRXA			TRXL			TRXP			LHUO			LHUA			LHUL			LHUP			LRAO			LRAA			LRAL			LRAP			LHNO			LHNA			LHNL			LHNP			RHUO			RHUA			RHUL			RHUP			RRAO			RRAA			RRAL			RRAP			RHNO			RHNA			RHNL			RHNP			LFHD			RFHD			RBHD			LSHO			LUPA			LELB			LFRM			LWRA			LWRB			LFIN			RSHO			RUPA			RELB			RFRM			RWRA			RWRB			RFIN			LTHI			LKNE			LTIB			LANK			LTOE			RKNE			RTIB			RANK			LASI			LHEE			LBHD			RTHI			RHEE			RTOE			STRN			RASI			CLAV			RPSI			C7			LPSI			RBAK			T10			LHipAngles			LKneeAngles			LAbsAnkleAngle			LAnkleAngles			RHipAngles			RKneeAngles			RAnkleAngles			RAbsAnkleAngle			LPelvisAngles			RPelvisAngles			LFootProgressAngles			RFootProgressAngles			RNeckAngles			LNeckAngles			RSpineAngles			LSpineAngles			LShoulderAngles			LElbowAngles			LWristAngles			RShoulderAngles			RElbowAngles			RWristAngles			RThoraxAngles			LThoraxAngles			RHeadAngles			LHeadAngles			LHipPower			LKneePower			LAnklePower			RHipPower			RKneePower			RAnklePower			LWaistPower			RWaistPower			LNeckPower			RNeckPower			LShoulderPower			RShoulderPower			LElbowPower			RElbowPower			LWristPower			RWristPower			LGroundReactionForce			LNormalisedGRF			RGroundReactionForce			RNormalisedGRF			LAnkleForce			RAnkleForce			RKneeForce			LKneeForce			RHipForce			LHipForce			LWaistForce			RWaistForce			LNeckForce			RNeckForce			LShoulderForce			RShoulderForce			LElbowForce			RElbowForce			LWristForce			RWristForce			LGroundReactionMoment			RGroundReactionMoment			LAnkleMoment			RAnkleMoment			RKneeMoment			LKneeMoment			RHipMoment			LHipMoment			LWaistMoment			RWaistMoment			LNeckMoment			RNeckMoment			LShoulderMoment			RShoulderMoment			LElbowMoment			RElbowMoment			LWristMoment			RWristMoment			CentreOfMass			CentreOfMassFloor			
		X1	Y1	Z1	X2	Y2	Z2	X3	Y3	Z3	X4	Y4	Z4	X5	Y5	Z5	X6	Y6	Z6	X7	Y7	Z7	X8	Y8	Z8	X9	Y9	Z9	X10	Y10	Z10	X11	Y11	Z11	X12	Y12	Z12	X13	Y13	Z13	X14	Y14	Z14	X15	Y15	Z15	X16	Y16	Z16	X17	Y17	Z17	X18	Y18	Z18	X19	Y19	Z19	X20	Y20	Z20	X21	Y21	Z21	X22	Y22	Z22	X23	Y23	Z23	X24	Y24	Z24	X25	Y25	Z25	X26	Y26	Z26	X27	Y27	Z27	X28	Y28	Z28	X29	Y29	Z29	X30	Y30	Z30	X31	Y31	Z31	X32	Y32	Z32	X33	Y33	Z33	X34	Y34	Z34	X35	Y35	Z35	X36	Y36	Z36	X37	Y37	Z37	X38	Y38	Z38	X39	Y39	Z39	X40	Y40	Z40	X41	Y41	Z41	X42	Y42	Z42	X43	Y43	Z43	X44	Y44	Z44	X45	Y45	Z45	X46	Y46	Z46	X47	Y47	Z47	X48	Y48	Z48	X49	Y49	Z49	X50	Y50	Z50	X51	Y51	Z51	X52	Y52	Z52	X53	Y53	Z53	X54	Y54	Z54	X55	Y55	Z55	X56	Y56	Z56	X57	Y57	Z57	X58	Y58	Z58	X59	Y59	Z59	X60	Y60	Z60	X61	Y61	Z61	X62	Y62	Z62	X63	Y63	Z63	X64	Y64	Z64	X65	Y65	Z65	X66	Y66	Z66	X67	Y67	Z67	X68	Y68	Z68	X69	Y69	Z69	X70	Y70	Z70	X71	Y71	Z71	X72	Y72	Z72	X73	Y73	Z73	X74	Y74	Z74	X75	Y75	Z75	X76	Y76	Z76	X77	Y77	Z77	X78	Y78	Z78	X79	Y79	Z79	X80	Y80	Z80	X81	Y81	Z81	X82	Y82	Z82	X83	Y83	Z83	X84	Y84	Z84	X85	Y85	Z85	X86	Y86	Z86	X87	Y87	Z87	X88	Y88	Z88	X89	Y89	Z89	X90	Y90	Z90	X91	Y91	Z91	X92	Y92	Z92	X93	Y93	Z93	X94	Y94	Z94	X95	Y95	Z95	X96	Y96	Z96	X97	Y97	Z97	X98	Y98	Z98	X99	Y99	Z99	X100	Y100	Z100	X101	Y101	Z101	X102	Y102	Z102	X103	Y103	Z103	X104	Y104	Z104	X105	Y105	Z105	X106	Y106	Z106	X107	Y107	Z107	X108	Y108	Z108	X109	Y109	Z109	X110	Y110	Z110	X111	Y111	Z111	X112	Y112	Z112	X113	Y113	Z113	X114	Y114	Z114	X115	Y115	Z115	X116	Y116	Z116	X117	Y117	Z117	X118	Y118	Z118	X119	Y119	Z119	X120	Y120	Z120	X121	Y121	Z121	X122	Y122	Z122	X123	Y123	Z123	X124	Y124	Z124	X125	Y125	Z125	X126	Y126	Z126	X127	Y127	Z127	X128	Y128	Z128	X129	Y129	Z129	X130	Y130	Z130	X131	Y131	Z131	X132	Y132	Z132	X133	Y133	Z133	X134	Y134	Z134	X135	Y135	Z135	X136	Y136	Z136	X137	Y137	Z137	X138	Y138	Z138	X139	Y139	Z139	X140	Y140	Z140	X141	Y141	Z141	X142	Y142	Z142	X143	Y143	Z143	X144	Y144	Z144	X145	Y145	Z145	X146	Y146	Z146	X147	Y147	Z147	X148	Y148	Z148	X149	Y149	Z149	X150	Y150	Z150	X151	Y151	Z151	X152	Y152	Z152	X153	Y153	Z153	X154	Y154	Z154	X155	Y155	Z155	X156	Y156	Z156	X157	Y157	Z157	X158	Y158	Z158	X159	Y159	Z159	X160	Y160	Z160	X161	Y161	Z161	X162	Y162	Z162	X163	Y163	Z163	X164	Y164	Z164	X165	Y165	Z165	X166	Y166	Z166	X167	Y167	Z167	X168	Y168	Z168	X169	Y169	Z169	X170	Y170	Z170	X171	Y171	Z171	X172	Y172	Z172	X173	Y173	Z173	X174	Y174	Z174	X175	Y175	Z175	X176	Y176	Z176	X177	Y177	Z177	X178	Y178	Z178	X179	Y179	Z179	X180	Y180	Z180	X181	Y181	Z181	X182	Y182	Z182	X183	Y183	Z183	X184	Y184	Z184	X185	Y185	Z185	X186	Y186	Z186	X187	Y187	Z187	X188	Y188	Z188	X189	Y189	Z189	X190	Y190	Z190	X191	Y191	Z191	X192	Y192	Z192	X193	Y193	Z193	X194	Y194	Z194	X195	Y195	Z195	X196	Y196	Z196	X197	Y197	Z197	

251	2.5	1355.10595703125	900.4104003906255	265.9838867187501	1484.83447265625	896.3279418945317	272.9421997070314	1362.039794921875	899.525756835938	136.1929168701172	1359.229858398438	1030.322265625	265.3187255859376	1472.984497070313	512.055603027344	192.3418273925782	1838.931640625001	617.5554199218752	328.7130126953126	1601.419555664063	558.719665527344	-188.4093627929688	1357.955200195313	899.7885742187505	201.0598449707032	1548.148437500001	75.93504333496097	196.8179168701173	1962.217041015626	147.5885314941407	225.0924224853517	1576.735473632813	76.54923248291018	-223.3831939697267	1476.619018554688	490.9675292968752	192.5582885742189	1678.723632812501	73.70355224609378	172.4708709716797	1666.251831054688	258.6395568847657	180.6613464355469	1661.580810546876	80.723503112793	-12.13900756835938	1494.40185546875	60.53729248046878	189.0863037109376	1233.2080078125	491.8941650390627	343.7078552246095	1623.157714843751	374.4855957031251	217.672088623047	1108.720458984375	515.382507324219	-63.33227539062503	1352.2568359375	901.0322265625005	330.9078674316407	946.051147460938	174.4663391113282	350.7579040527345	1240.18408203125	-93.48754882812503	266.549530029297	879.1995239257817	226.1070556640626	-47.07196044921876	1218.853515625	476.0263977050784	344.060272216797	1025.290649414063	64.22805023193362	352.2313537597657	1168.3203125	188.1021423339844	339.7989807128907	1005.204711914063	68.50083923339847	163.723617553711	902.425170898438	207.7334899902345	368.5757446289064	1740.164428710938	78.09230804443362	166.9323883056641	1736.007080078126	139.7376556396485	169.6625518798829	1734.450195312501	80.43229675292972	105.3957519531251	1678.723754882813	73.70349884033206	172.4708251953126	1066.245727539063	16.39289665222169	346.7832336425782	1113.922241210938	57.68418884277347	342.639129638672	1059.550415039063	17.8171558380127	283.9473266601564	1025.290649414063	64.2280197143555	352.2313232421876	1301.093872070313	1613.298950195313	240.5893096923829	1527.229858398438	1588.866699218751	230.1706695556642	1290.306518554688	1610.432495117188	13.17260742187501	1325.365600585938	1839.656616210938	236.5849151611329	1299.165405273438	1360.942626953125	61.57675552368167	1491.750244140625	1354.27783203125	-43.46915817260744	1275.650756835938	1571.714477539063	5.093570709228517	1401.762329101563	1421.760864257813	245.8130493164064	1340.137329101563	1376.135375976563	450.3120727539065	1549.263916015626	1375.913818359375	513.2819824218752	1353.084716796875	1162.552978515625	406.5615234375002	1401.76220703125	1421.760986328125	245.8130340576173	1401.76220703125	1421.760864257813	245.8130493164064	1620.296997070313	1417.858520507813	233.139862060547	1414.548583984375	1428.327026367188	464.2774047851565	1398.248413085938	1202.957397460938	252.5950469970704	1218.191528320313	1082.659423828125	34.44509124755861	938.8952636718755	1164.485107421875	28.73154830932619	1205.102661132813	1058.216552734375	324.2134399414064	1299.165405273438	1360.942626953125	61.57674789428714	1286.488525390625	815.837768554688	15.02281284332276	1037.955932617188	753.4224243164065	-1.468384742736817	1274.942504882813	794.276000976563	270.6355895996095	1222.97216796875	1063.98193359375	33.08552932739259	1310.899291992188	654.2825927734377	-11.70137691497803	1372.04833984375	688.3408813476565	-161.7378387451172	1158.99462890625	642.0313110351565	-76.39292907714847	1286.488647460938	815.837768554688	15.02284145355225	1326.865600585938	1095.473388671875	524.911804199219	1043.425537109375	1124.25146484375	582.7556152343752	1390.094848632813	1165.56689453125	799.868774414063	1340.137451171875	1376.13525390625	450.311950683594	1518.36083984375	897.8493041992192	531.2547607421877	1343.107421875	730.6921386718752	614.168640136719	1574.038085937501	959.570922851563	773.3713989257817	1340.270141601563	1081.639770507813	525.3557739257815	1625.635375976563	782.353149414063	548.8734130859377	1671.679443359376	846.1301269531255	686.605163574219	1733.011962890626	870.3912963867192	472.210876464844	1518.360961914063	897.8493041992192	531.2547607421877	1498.920288085938	1661.121582031251	167.0812072753907	1497.738647460938	1660.244384765626	294.1913452148439	1357.693481445313	1678.757812500001	307.9966735839845	1292.951049804688	1416.643310546875	46.64991378784181	1277.932739257813	1248.785522460938	6.10506105422974	1241.364013671875	1079.492553710938	-2.232547760009767	1256.274291992188	952.5104980468755	-21.39992141723634	1323.943969726563	824.7421264648442	24.58658409118654	1254.269775390625	809.5664672851567	-7.254835128784183	1307.979614257813	740.207214355469	-20.97291564941407	1336.698974609375	1432.85546875	461.9306945800784	1342.768310546875	1223.814208984375	536.8515625000002	1349.107666015625	1104.090576171875	561.2886962890627	1464.216796875	1008.669616699219	561.116149902344	1547.906860351563	920.8016967773442	518.8034667968752	1493.252197265625	880.0849609375005	555.928649902344	1579.226440429688	850.1298828125005	561.7937011718752	1444.820678710938	744.3548583984377	88.20632171630862	1492.192749023438	519.0344238281252	135.3981018066407	1513.520751953125	305.5237426757814	122.0989379882813	1551.202636718751	76.00066375732425	151.9217376708985	1692.788574218751	49.99769973754886	178.1308746337891	1250.875244140625	488.5606689453127	401.4747009277346	1079.50732421875	303.1099853515626	407.561218261719	953.4479980468755	168.7524566650391	394.7764587402346	1413.04296875	998.0615234375005	160.2997589111329	1503.510986328125	35.2834815979004	196.7873992919923	1342.94189453125	1674.591308593751	166.9145202636719	1302.173461914063	635.1519775390627	423.6323242187502	889.1342773437505	187.6487884521485	347.2190551757814	1015.525268554688	40.49814605712892	337.5161743164064	1461.453247070313	1250.430541992188	248.5222167968751	1401.524780273438	999.5310668945317	375.9017639160157	1408.749389648438	1421.636108398438	245.4078369140626	1213.763793945313	1001.542297363282	326.6871948242189	1268.98046875	1491.2783203125	252.5484619140626	1222.483276367188	1007.96044921875	190.1490478515626	1189.899780273438	1322.735595703125	310.9306945800782	1209.269165039063	1226.140991210938	262.9589233398439	-2.476654052734376	16.88253974914551	18.24299240112305	3.972079038619997	-15.61794948577882	5.75009059906006	0	0	-5.617526531219484	2.73652482032776	-9.02586650848389	-5.688181400299074	-2.19770097732544	20.25202178955079	-14.30913162231446	8.007330894470218	-2.882444381713868	24.72795295715333	1.332763075828553	-6.793223381042484	-7.237936973571781	0	0	-7.186829090118412	-0.2932123541831971	3.06880569458008	1.8181711435318	0.2932123541831971	-3.06880569458008	1.8181711435318	-2.540349960327149	-5.137893676757814	-94.08574676513675	-3.773271322250368	4.944691658020021	-40.56920623779298	1.008359789848328	0.6160146594047549	5.157621383666994	-1.008359789848328	-0.6160146594047549	5.157621383666994	-1.531246781349183	-6.361794471740726	-0.8110691308975224	1.531246781349183	6.361794471740726	-0.8110691308975224	8.201053619384769	5.996474742889406	-14.78704738616944	7.95138679647378e-16	2.074516773642455e-12	30.50396728515626	4.897545337677004	110.0444717407227	-6.040600299835209	12.98216915130616	9.102537155151371	-2.476845979690553	-9.939233892638918e-16	1.367638532805139e-12	48.14095687866214	4.392826080322267	100.1712265014649	-2.784462690353394	1.775137186050416	3.320038795471193	0.9200621247291569	-1.775137186050416	-3.320038795471193	0.9200621247291569	1.007693529129029	2.623077392578126	-6.120301723480228	-1.007693529129029	-2.623077392578126	-6.120301723480228	nan	nan	nan	nan	nan	nan	nan	nan	nan	nan	nan	nan	nan	nan	nan	nan	nan	nan	nan	nan	nan	nan	nan	nan	nan	nan	nan	nan	nan	nan	0	0.01545389089733363	0	0	0.009502539411187175	0	0	-0.01191633008420468	0	0	-0.01785362325608731	0	0	-0.001186714740470052	0	0	-7.737619307590651e-05	0	nan	nan	nan	nan	nan	nan	nan	nan	nan	nan	nan	nan	nan	nan	nan	nan	nan	nan	nan	nan	nan	nan	nan	nan	nan	nan	nan	nan	nan	nan	nan	nan	nan	nan	nan	nan	nan	nan	nan	nan	nan	nan	-0.03621790185570718	0.641717314720154	0.1870670765638352	0.1554315835237504	0.6015374660491946	0.1694783568382264	-0.03788278624415399	0.2804239690303804	-0.1244553923606873	0.05473210290074351	0.2547021508216859	-0.1177505925297738	-0.03087586164474489	0.07776231318712237	0.0305544175207615	0.005862087476998571	0.07652232795953753	0.02003091946244241	nan	nan	nan	nan	nan	nan	nan	nan	nan	nan	nan	nan	nan	nan	nan	nan	nan	nan	nan	nan	nan	nan	nan	nan	nan	nan	nan	nan	nan	nan	nan	nan	nan	nan	nan	nan	22.43791770935059	-4.112007141113283	-5.634500026702883	31.83985900878908	-6.449524402618412	28.42024612426759	8.677900314331058	0.3399250805377961	-29.6432571411133	8.697529792785648	0.04240684211254121	-10.54323482513428	2.352100372314454	1.042129410720673e-15	1.853449106216432	-0.3851886093616488	1.515824539659642e-15	1.110597491264344	1342.3994140625	990.033569335938	257.2796630859376	1342.3994140625	0	257.2796630859376	
252	2.51	1369.10595703125	901.8997192382817	264.000213623047	1498.901489257813	898.578979492188	270.050994873047	1375.1552734375	901.7656250000005	134.162094116211	1372.429321289063	1031.836303710938	264.0208740234376	1487.894409179688	513.4884033203127	192.9452056884767	1854.073608398438	621.1328125000002	329.2401123046876	1616.809692382813	558.1481933593752	-188.6792755126954	1371.513671875	901.6494140625005	199.0557861328126	1550.879882812501	75.61563110351565	196.8580780029298	1966.660156250001	135.6692810058594	224.4038391113282	1578.675048828126	75.85996246337893	-223.2202911376954	1490.941284179688	492.3073425292971	193.134490966797	1681.321166992188	72.68331146240237	171.8747100830079	1669.883911132813	257.683319091797	180.1304779052735	1663.316650390626	79.80473327636722	-12.64927673339844	1497.014282226563	60.50737762451175	189.3881072998047	1252.8447265625	491.178649902344	346.2033081054689	1643.338867187501	377.5609741210939	216.7310485839845	1123.57958984375	509.9261779785159	-60.1177673339844	1366.698120117188	902.1499023437505	328.9446105957032	961.927368164063	179.8943939208985	351.2561035156251	1251.701782226563	-92.15632629394534	275.1207580566407	903.0803833007817	228.4397583007814	-46.18295288085939	1238.233764648438	475.544860839844	346.457000732422	1030.696533203125	62.83036041259768	351.8507080078126	1184.462158203125	173.0887145996094	339.3566284179689	1010.321838378907	69.89676666259768	163.4580383300782	921.6191406250005	216.9407958984376	369.427947998047	1742.756713867188	76.7419357299805	166.0369110107422	1738.944335937501	138.4086151123047	168.788803100586	1736.755249023438	79.11572265625003	104.528923034668	1681.321166992188	72.68336486816409	171.8746948242188	1067.055541992188	11.46021842956543	345.9916381835939	1118.310791015625	48.21302795410159	341.8270263671876	1060.264038085938	13.81572246551514	283.1940917968751	1030.696411132813	62.83035278320315	351.8507080078126	1314.274291992188	1614.253540039063	237.8639221191407	1540.353759765626	1589.328613281251	227.3870391845704	1303.34130859375	1610.671508789063	10.46430969238282	1339.002563476563	1840.547363281251	233.1104125976564	1312.560668945313	1361.74951171875	59.36733627319339	1505.20361328125	1355.11181640625	-45.49528121948244	1288.8984375	1572.379638671876	2.56490707397461	1414.93408203125	1422.92431640625	243.5650939941407	1353.421508789063	1377.708984375	448.2208251953127	1562.600341796876	1377.833374023438	511.1206359863284	1366.558349609375	1164.0087890625	404.9557800292971	1414.934326171875	1422.92431640625	243.5651245117189	1414.934326171875	1422.924438476563	243.5651245117189	1633.425903320313	1419.173461914063	230.1874389648439	1428.43212890625	1430.27587890625	461.9577941894534	1411.641845703125	1204.147216796875	251.1329956054689	1234.077514648438	1082.923706054688	31.98545455932619	954.2299194335942	1162.299926757813	25.8204917907715	1220.699340820313	1058.249877929688	321.5808105468751	1312.560668945313	1361.749755859375	59.36732482910159	1303.628051757813	816.4805297851567	12.49719142913819	1055.45458984375	752.933532714844	-4.381777763366701	1291.823120117188	794.7084350585942	268.0354003906251	1238.946044921875	1064.272705078125	30.62125396728517	1328.196044921875	654.8229980468752	-13.80023193359376	1389.637329101563	688.5694580078127	-163.8482818603516	1176.374877929688	642.3203125000002	-78.77947235107425	1303.628051757813	816.4804687500005	12.4972038269043	1336.336059570313	1097.078369140625	521.9014892578127	1052.979248046875	1129.086059570313	578.1047363281252	1398.717041015625	1165.607543945313	797.3769531250005	1353.42138671875	1377.709106445313	448.2208557128909	1521.949951171875	893.7916870117192	530.440612792969	1340.888061523438	731.884460449219	611.7189941406252	1576.923339843751	954.1833496093755	773.2043457031255	1349.328979492188	1082.848266601563	522.4992675781252	1625.266357421876	775.0661621093755	549.2842407226565	1672.808959960938	838.242797851563	686.6651000976565	1735.677001953126	858.9592895507817	472.495544433594	1521.950073242188	893.7916870117192	530.4406738281252	1512.140625	1661.438476562501	164.0709838867188	1511.058349609375	1660.970703125001	291.2034301757814	1371.09033203125	1679.812622070313	305.0254211425782	1306.306396484375	1417.42236328125	44.35353851318361	1292.951538085938	1249.299438476563	3.957775354385378	1257.517578125	1079.912231445313	-4.535035610198976	1273.024169921875	953.1011352539067	-23.83674812316895	1341.119995117188	825.475952148438	22.14696884155274	1271.380126953125	810.1508178710942	-9.856637001037601	1325.226196289063	740.7490844726565	-23.28475379943848	1349.93310546875	1434.452758789063	459.7089538574221	1354.138671875	1225.0615234375	534.1419677734377	1358.773803710938	1105.258056640625	558.259216308594	1471.169799804688	1006.567016601563	559.3297119140627	1552.233886718751	915.6943359375005	517.958190917969	1496.210693359375	877.0331420898442	555.1247558593752	1581.078247070313	844.3715820312505	561.5496826171877	1458.615112304688	746.330993652344	87.71186828613284	1507.138793945313	520.155212402344	135.9763183593751	1522.552124023438	306.2201538085939	121.6886825561524	1553.850708007813	75.64173889160159	151.9562530517579	1695.130981445313	48.9305114746094	177.4862823486329	1271.168212890625	488.5211486816409	403.8004150390627	1096.619384765625	307.1705017089845	409.1105651855471	968.470825195313	174.4963684082032	395.4493408203127	1425.714233398438	1000.48095703125	158.5376739501954	1504.60693359375	36.15991592407228	196.8550872802736	1356.213989257813	1675.218505859376	163.9613494873047	1320.90576171875	635.3006591796877	425.0055236816409	906.3911743164067	197.1313934326173	347.0965576171876	1018.769470214844	40.07802200317384	337.0581665039064	1474.930419921875	1251.92578125	246.3667144775392	1415.67236328125	1000.703552246094	374.0659484863282	1421.920043945313	1422.804443359375	243.1373748779298	1227.625244140625	1002.133666992188	327.3133544921876	1281.936767578125	1492.1953125	250.2067871093751	1235.394897460938	1008.730651855469	190.4386901855469	1202.935546875	1323.666381835938	309.2349548339845	1222.363403320313	1226.981689453125	262.0628356933595	-1.68554723262787	17.11463737487794	18.09893417358399	4.135147094726564	-15.60220813751221	7.563239097595218	0	0	-4.338009357452394	2.780741930007935	-9.195851325988773	-4.394599437713625	-2.970145702362061	20.2641830444336	-13.89976119995118	9.404661178588871	-3.9110004901886	26.08497047424318	0.9517482519149785	-5.169472694396974	-11.57847690582276	0	0	-11.53073883056641	0.00910065416246653	2.668228626251222	1.465130329132081	-0.00910065416246653	-2.668228626251222	1.465130329132081	-2.561747074127198	-5.416392326354982	-93.77964019775393	-3.794229030609133	5.318695545196535	-35.29037475585939	1.035998344421387	0.7664820551872258	5.329474925994875	-1.035998344421387	-0.7664820551872258	5.329474925994875	-2.023123741149903	-6.154651641845707	-0.4804432988166811	2.023123741149903	6.154651641845707	-0.4804432988166811	8.467760086059574	6.23580884933472	-14.30198955535889	0	-6.262512210197805e-12	30.27426719665529	4.708697319030763	110.0674896240235	-6.258524894714359	12.54444217681885	8.771578788757328	-3.302850723266603	1.987846699118445e-16	-4.319193440405213e-12	47.08341598510744	4.356716632843019	100.6845703125001	-2.89906930923462	1.980972528457642	3.505282640457155	0.8622100353240971	-1.980972528457642	-3.505282640457155	0.8622100353240971	1.19624948501587	2.637922286987306	-6.236256599426273	-1.19624948501587	-2.637922286987306	-6.236256599426273	nan	nan	nan	nan	nan	nan	nan	nan	nan	nan	nan	nan	nan	nan	nan	nan	nan	nan	nan	nan	nan	nan	nan	nan	nan	nan	nan	nan	nan	nan	0	0.01735103875398637	0	0	0.003651560982689263	0	0	-0.00947967637330294	0	0	-0.02243494242429734	0	0	-0.001395495841279626	0	0	-8.26217146823183e-05	0	nan	nan	nan	nan	nan	nan	nan	nan	nan	nan	nan	nan	nan	nan	nan	nan	nan	nan	nan	nan	nan	nan	nan	nan	nan	nan	nan	nan	nan	nan	nan	nan	nan	nan	nan	nan	nan	nan	nan	nan	nan	nan	-0.03650504723191263	0.5910801887512209	0.1671524643898011	0.1535416841506959	0.5604943037033083	0.1753146499395371	-0.03655429184436799	0.2580331563949586	-0.1149962469935418	0.05394301936030391	0.2451385259628297	-0.1103699430823327	-0.03150654956698419	0.07229580730199817	0.03040186129510404	0.009308405220508579	0.07472403347492221	0.01948594860732556	nan	nan	nan	nan	nan	nan	nan	nan	nan	nan	nan	nan	nan	nan	nan	nan	nan	nan	nan	nan	nan	nan	nan	nan	nan	nan	nan	nan	nan	nan	nan	nan	nan	nan	nan	nan	22.19594383239747	-3.919907331466677	-6.936597347259525	32.12390899658205	-5.95472288131714	25.64818572998048	8.395600318908695	0.36202010512352	-29.24072456359865	8.188675880432132	0.06200293079018596	-12.13920879364014	2.490076780319215	1.989519668598611e-15	2.026968002319337	-0.03810733184218408	-1.278976975190158e-15	1.011300325393677	1355.864990234375	991.0321655273442	256.1914367675782	1355.864990234375	0	256.1914367675782	
